PathFileType	4	(X/Y/Z)	/Users/itak/Documents/Research/Walk-IL/dataset/trc/00235_00009.trc
DataRate	CameraRate	NumFrames	NumMarkers	Units	OrigDataRate	OrigDataStartFrame	OrigNumFrames
100.000000	100.000000	4	53	mm	100.000000	735	841
Frame#	Time	RPSI			LPSI			L3			STRN			T10			C7			CLAV			RBAK			LBAK			LSHO			LUPA			LAEL			LAOL			LWTS			LWPS			LFRA			LIFD			LHPS			LHTS			RSHO			RUPA			RAEL			RAOL			RWTS			RWPS			RFRA			RIFD			RHTS			RHPS			RBHD			LFHD			RFHD			LBHD			LHIP			RHIP			RASI			LASI			LKNE			LTHI			LANK			LTIP			LTOE			LMT1			LMT5			LHEE			RKNE			RTHI			RANK			RTIP			RTOE			RMT1			RMT5			RHEE			
		X1	Y1	Z1	X2	Y2	Z2	X3	Y3	Z3	X4	Y4	Z4	X5	Y5	Z5	X6	Y6	Z6	X7	Y7	Z7	X8	Y8	Z8	X9	Y9	Z9	X10	Y10	Z10	X11	Y11	Z11	X12	Y12	Z12	X13	Y13	Z13	X14	Y14	Z14	X15	Y15	Z15	X16	Y16	Z16	X17	Y17	Z17	X18	Y18	Z18	X19	Y19	Z19	X20	Y20	Z20	X21	Y21	Z21	X22	Y22	Z22	X23	Y23	Z23	X24	Y24	Z24	X25	Y25	Z25	X26	Y26	Z26	X27	Y27	Z27	X28	Y28	Z28	X29	Y29	Z29	X30	Y30	Z30	X31	Y31	Z31	X32	Y32	Z32	X33	Y33	Z33	X34	Y34	Z34	X35	Y35	Z35	X36	Y36	Z36	X37	Y37	Z37	X38	Y38	Z38	X39	Y39	Z39	X40	Y40	Z40	X41	Y41	Z41	X42	Y42	Z42	X43	Y43	Z43	X44	Y44	Z44	X45	Y45	Z45	X46	Y46	Z46	X47	Y47	Z47	X48	Y48	Z48	X49	Y49	Z49	X50	Y50	Z50	X51	Y51	Z51	X52	Y52	Z52	X53	Y53	Z53	

736	7.350000000000001	-88.25717926025391	1038.648071289062	646.306884765625	-60.15736770629883	1042.671997070312	529.5475463867188	-76.11215209960938	1125.485961914062	573.0978393554688	169.4363708496094	1308.405151367188	623.7421264648438	-80.44326019287109	1253.080078125	580.1255493164062	-15.20961284637451	1513.842041015625	591.6485595703125	143.9216003417969	1426.044921875	622.2959594726562	-105.350471496582	1374.998168945312	647.6392211914062	-15.07989120483398	1477.253051757812	478.8908386230469	82.88338470458984	1476.687622070312	439.6846008300781	62.58625030517578	1359.336791992188	355.5	72.08935546875	1149.508178710938	328.5744934082031	-3.380602359771729	1131.78857421875	370.0389099121094	178.9025726318359	928.1942138671875	397.5780334472656	159.3887176513672	906.0798950195312	318.4726257324219	101.9035720825195	1044.113037109375	319.1260070800781	204.3695678710938	734.7084350585938	398.2872009277344	184.5980987548828	819.9072875976562	327.7817993164062	223.6832580566406	830.3624877929688	382.7989196777344	9.788281440734863	1468.19384765625	768.0462646484375	-20.64931106567383	1402.896728515625	830.2962036132812	-45.57972717285156	1122.573852539062	869.6510009765625	-66.24644470214844	1113.916137695312	775.1795043945312	107.6156387329102	916.785400390625	850.9754028320312	47.03418731689453	898.8450927734375	906.6336059570312	-18.28176307678223	1055.270874023438	887.143310546875	135.9446716308594	725.1259765625	849.2255249023438	152.1274719238281	799.0059204101562	873.57568359375	92.83612823486328	795.1299438476562	914.5728149414062	40.78834533691406	1680.505493164062	657.4614868164062	259.0647888183594	1683.771118164062	594.6438598632812	243.4129333496094	1683.655395507812	693.4140014648438	106.2356262207031	1678.295532226562	532.5828247070312	71.41031646728516	982.6637573242188	416.8291625976562	-17.70640754699707	1000.143737792969	773.64990234375	84.54572296142578	1045.209350585938	759.5094604492188	156.7856750488281	1026.180786132812	488.6225891113281	153.76220703125	505.6108093261719	510.6940612792969	136.6190032958984	646.0709228515625	468.8023986816406	74.79808044433594	33.4388427734375	550.4710083007812	113.1351623535156	275.6228637695312	521.6199340820312	282.1683349609375	40.43873596191406	637.0406494140625	206.9554748535156	34.85192489624023	668.4534301757812	204.8127746582031	36.82659149169922	552.51171875	7.948500156402588	38.8239860534668	593.2603759765625	36.21456146240234	508.6010437011719	767.2549438476562	41.21145629882812	777.6541137695312	794.8798217773438	-221.7938690185547	92.25653076171875	661.2868041992188	6.379786491394043	391.4510803222656	744.8373413085938	-22.95003318786621	43.96968460083008	708.7515869140625	-52.24317932128906	53.08012771606445	645.7196044921875	-140.5414123535156	54.2294921875	726.5389404296875	-249.3759155273438	115.2260894775391	584.312255859375	
737	7.36	-85.80060577392578	1038.3798828125	646.6141357421875	-57.92476654052734	1042.657958984375	529.7779541015625	-73.77507019042969	1125.396728515625	573.2046508789062	171.8228607177734	1308.474609375	623.4847412109375	-78.04178619384766	1252.995727539062	580.104248046875	-12.94148063659668	1513.809448242188	591.3592529296875	146.28173828125	1426.103393554688	621.9905395507812	-102.9664535522461	1374.927612304688	647.4986572265625	-12.83972263336182	1477.134399414062	478.6079711914062	85.12468719482422	1476.62109375	439.4288940429688	65.17998504638672	1359.270385742188	355.2328796386719	75.50543975830078	1149.440795898438	328.3738098144531	-0.06943453103303909	1131.475952148438	369.5515747070312	183.1664276123047	928.7781982421875	398.0960388183594	164.0272216796875	906.4273681640625	318.9532470703125	105.8392105102539	1044.171020507812	319.1764831542969	209.8370361328125	735.473876953125	399.2028503417969	189.745849609375	820.4208984375	328.490234375	228.5380249023438	831.2056274414062	383.5977478027344	12.16938495635986	1468.298706054688	767.801513671875	-18.10243606567383	1402.968505859375	830.1058349609375	-42.43080902099609	1122.594604492188	869.5924072265625	-62.99932861328125	1113.795532226562	775.0940551757812	111.8139877319336	917.6148681640625	851.2208251953125	51.2525749206543	899.3374633789062	906.7717895507812	-14.85764217376709	1055.420532226562	887.1554565429688	141.3218078613281	726.1473999023438	849.691162109375	157.0682220458984	800.1701049804688	874.0313720703125	97.67326354980469	795.9329833984375	914.8941040039062	43.10640716552734	1680.51904296875	657.1312255859375	261.2935180664062	1683.830322265625	593.9797973632812	245.7812042236328	1683.759643554688	692.7705688476562	108.3668441772461	1678.305908203125	532.14404296875	73.35655975341797	982.7340698242188	416.6605834960938	-14.88305473327637	999.943115234375	773.73291015625	87.17367553710938	1045.073120117188	759.3092041015625	158.9662017822266	1026.191162109375	488.2623596191406	154.3625793457031	505.3978881835938	510.2687377929688	137.7934875488281	646.0240478515625	468.5476379394531	74.78886413574219	33.41648101806641	550.4767456054688	113.3381881713867	275.5055847167969	521.4275512695312	282.1962585449219	40.4246826171875	637.0173950195312	206.9708251953125	34.89430236816406	668.3883666992188	204.8171539306641	36.77769470214844	552.4345703125	7.936290264129639	38.82094573974609	593.2623901367188	42.61256790161133	508.5716247558594	769.4061889648438	45.3450927734375	777.8331909179688	795.4149169921875	-218.4170837402344	94.35649871826172	664.01220703125	12.59982681274414	391.5340881347656	746.9617309570312	-19.40806770324707	45.06520462036133	709.467041015625	-49.39654541015625	54.33768463134766	646.583740234375	-136.6865234375	56.12648010253906	728.437255859375	-246.6899108886719	117.5738754272461	587.3898315429688	
738	7.37	-83.40522003173828	1038.131591796875	646.9302368164062	-55.7557487487793	1042.649536132812	530.008544921875	-71.50180053710938	1125.311157226562	573.3216552734375	174.1407318115234	1308.546875	623.2542724609375	-75.71593475341797	1252.922241210938	580.0989379882812	-10.73389530181885	1513.792602539062	591.0855712890625	148.5754089355469	1426.1650390625	621.71484375	-100.642448425293	1374.853393554688	647.3743286132812	-10.65841865539551	1477.0185546875	478.3419799804688	87.30251312255859	1476.549560546875	439.1899719238281	67.71595001220703	1359.194580078125	354.98828125	78.89564514160156	1149.373046875	328.2000122070312	3.211842060089111	1131.159057617188	369.0794372558594	187.3427734375	929.3231811523438	398.6111755371094	168.6049346923828	906.7749633789062	319.4222412109375	109.7388687133789	1044.2294921875	319.2415466308594	215.1700134277344	736.1968383789062	400.0578308105469	194.7987213134766	820.9274291992188	329.16162109375	233.2682495117188	832.0032958984375	384.3802490234375	14.47974395751953	1468.413208007812	767.57470703125	-15.64332866668701	1403.0478515625	829.927978515625	-39.38841247558594	1122.624389648438	869.5310668945312	-59.87330627441406	1113.6953125	774.9707641601562	115.8824920654297	918.446044921875	851.4268798828125	55.3372802734375	899.8290405273438	906.8651733398438	-11.54298973083496	1055.568115234375	887.1509399414062	146.5834655761719	727.176513671875	850.0568237304688	161.8459320068359	801.3245239257812	874.4110717773438	102.361457824707	796.7252197265625	915.1353149414062	45.37820816040039	1680.565063476562	656.80908203125	263.4874572753906	1683.875854492188	593.348876953125	248.1031341552734	1683.854370117188	692.1566772460938	110.4685821533203	1678.318969726562	531.72119140625	75.21730041503906	982.7813720703125	416.4869079589844	-12.14722537994385	999.77001953125	773.8143920898438	89.74702453613281	1044.938354492188	759.10595703125	161.0732727050781	1026.195434570312	487.8890991210938	154.9605712890625	505.1891784667969	509.8877868652344	138.9501953125	645.9696655273438	468.3263244628906	74.77909851074219	33.40042877197266	550.4862060546875	113.545783996582	275.3963317871094	521.2509155273438	282.224609375	40.40737533569336	636.9992065429688	206.9846496582031	34.93014526367188	668.332275390625	204.8225555419922	36.73607635498047	552.366455078125	7.916084289550781	38.81797409057617	593.2618408203125	48.7441291809082	508.6091613769531	771.3888549804688	49.35982894897461	778.0389404296875	795.9320068359375	-214.4278717041016	95.81608581542969	667.0651245117188	18.6679573059082	391.6423950195312	748.9974975585938	-15.04632472991943	46.41495895385742	710.3389282226562	-45.81951522827148	55.61169052124023	647.6590576171875	-132.0233917236328	57.70028305053711	730.6070556640625	-243.5452575683594	119.1365356445312	590.8051147460938	
739	7.38	-81.07908630371094	1037.926147460938	647.24267578125	-53.64455795288086	1042.654541015625	530.2349853515625	-69.28757476806641	1125.23974609375	573.44482421875	176.3968811035156	1308.630737304688	623.0465698242188	-73.46556854248047	1252.865478515625	580.108154296875	-8.581398963928223	1513.793701171875	590.8349609375	150.8080749511719	1426.236450195312	621.46630859375	-98.37294006347656	1374.788818359375	647.2748413085938	-8.531790733337402	1476.917358398438	478.0982666015625	89.41708374023438	1476.484619140625	438.96826171875	70.18589782714844	1359.118408203125	354.76708984375	82.24970245361328	1149.312622070312	328.0573425292969	6.455101013183594	1130.846435546875	368.6347961425781	191.4114990234375	929.8344116210938	399.1190185546875	173.0988311767578	907.1224975585938	319.8792419433594	113.587532043457	1044.294555664062	319.3241271972656	220.3438568115234	736.883056640625	400.8500061035156	199.7347106933594	821.4280395507812	329.7963256835938	237.8750915527344	832.7632446289062	385.1416320800781	16.73016357421875	1468.54345703125	767.3659057617188	-13.26446628570557	1403.142700195312	829.7636108398438	-36.45186233520508	1122.671997070312	869.4762573242188	-56.87309646606445	1113.626831054688	774.8340454101562	119.8153762817383	919.2805786132812	851.583984375	59.28153991699219	900.3211669921875	906.9122314453125	-8.338075637817383	1055.71923828125	887.1366577148438	151.7199859619141	728.2138671875	850.3164672851562	166.4462280273438	802.4652099609375	874.703125	106.9090423583984	797.5072631835938	915.2908935546875	47.60189819335938	1680.64501953125	656.4933471679688	265.6440734863281	1683.924560546875	592.7496337890625	250.3781890869141	1683.95361328125	691.5718994140625	112.5381317138672	1678.339965820312	531.3151245117188	77.00278472900391	982.807861328125	416.3135070800781	-9.517292976379395	999.647216796875	773.8902587890625	92.27164459228516	1044.825073242188	758.90185546875	163.1134796142578	1026.19287109375	487.5099182128906	155.5624237060547	504.9879455566406	509.5566711425781	140.0938873291016	645.9085083007812	468.1409301757812	74.76830291748047	33.38997268676758	550.498291015625	113.7659530639648	275.296875	521.0892333984375	282.2513732910156	40.39002990722656	636.9830322265625	206.9956207275391	34.95832443237305	668.2863159179688	204.8274078369141	36.70019912719727	552.306640625	7.885440349578857	38.81691741943359	593.2560424804688	54.59386825561523	508.724853515625	773.1941528320312	53.24469375610352	778.2860717773438	796.4347534179688	-209.7993469238281	96.58461761474609	670.4393920898438	24.57360458374023	391.7803344726562	750.948974609375	-9.87448787689209	47.94161224365234	711.3988037109375	-41.47046661376953	56.82429122924805	648.9822387695312	-126.53076171875	58.89384460449219	733.0521850585938	-239.8764190673828	119.865348815918	594.5458984375	
